<?xml version="1.0" standalone="no"?>
<!DOCTYPE svg PUBLIC "-//W3C//DTD SVG 20010904//EN"
 "http://www.w3.org/TR/2001/REC-SVG-20010904/DTD/svg10.dtd">
<svg version="1.0" xmlns="http://www.w3.org/2000/svg"
 width="179.000000pt" height="180.000000pt" viewBox="0 0 179.000000 180.000000"
 preserveAspectRatio="xMidYMid meet">
<metadata>
Created by potrace 1.16, written by Peter Selinger 2001-2019
</metadata>
<g transform="translate(0.000000,180.000000) scale(0.100000,-0.100000)"
fill="#000000" stroke="none">
<path d="M540 1700 c-123 -7 -171 -23 -190 -63 l-11 -22 18 21 c10 12 29 27
42 34 29 15 548 35 689 26 234 -14 365 -91 413 -245 26 -86 39 -336 42 -836
l2 -370 -26 -55 c-14 -30 -41 -70 -60 -89 l-34 -34 32 22 c20 13 45 48 65 89
32 65 33 70 37 222 1 85 -2 330 -8 544 -12 401 -22 489 -60 564 -48 93 -153
160 -295 187 -83 16 -428 19 -656 5z"/>
<path d="M1100 1482 c-143 -75 -160 -378 -27 -469 86 -59 203 4 237 126 19 67
5 239 -23 299 -27 57 -120 79 -187 44z m60 -102 c30 -16 41 -75 29 -148 -5
-35 -15 -72 -22 -83 -15 -23 -44 -25 -69 -2 -31 28 -22 184 15 231 12 15 22
15 47 2z"/>
<path d="M728 1474 c-32 -17 -37 -33 -40 -129 l-3 -70 -35 0 -35 0 -6 75 c-7
97 -13 110 -53 110 -68 0 -75 -25 -68 -245 5 -186 15 -225 56 -225 35 0 47 22
55 102 6 77 13 84 79 87 21 1 22 -3 22 -62 0 -93 39 -138 74 -84 19 29 36 172
36 310 0 94 -2 109 -20 127 -24 24 -27 24 -62 4z"/>
<path d="M743 763 c-35 -16 -47 -40 -37 -67 9 -23 40 -34 120 -42 72 -8 84
-20 84 -85 l0 -29 -73 0 c-79 0 -117 -16 -117 -50 0 -32 53 -50 213 -71 181
-25 282 -22 303 6 21 28 17 59 -9 83 -33 31 -80 42 -149 35 l-59 -6 3 49 3 49
82 -4 c102 -3 123 6 123 59 0 46 -18 67 -63 74 -18 3 -113 7 -212 10 -150 4
-185 2 -212 -11z"/>
</g>
</svg>
